<svg width="28" height="36" viewBox="0 0 28 36" fill="none" xmlns="http://www.w3.org/2000/svg">
<path fill-rule="evenodd" clip-rule="evenodd" d="M24.9806 21.7116L24.9361 21.6925C22.0785 20.4581 19.8073 21.5486 18.3643 22.7431C19.071 20.8626 19.2449 19.1703 19.2762 18.7919C19.4956 18.3313 19.7964 18.0513 20.1944 17.9363C21.2586 17.6284 22.6441 18.5879 22.6576 18.5975L23.0304 18.8586L25.2245 13.2068L18.3674 6.2547L12.9248 6.90098C12.8056 6.92035 12.6879 6.9435 12.5702 6.96715C11.5173 5.54729 10.1854 4.38001 8.64544 3.7058L14.3799 2.2867L26.4017 5.26075L26.5182 12.8715C26.5182 16.0357 25.9858 19.0146 24.9806 21.7116ZM14.4168 13.6761C14.6139 15.8615 14.3785 21.1377 7.9932 23.0612L4.71347 17.0252C4.97118 14.2864 6.19166 11.8593 8.01718 10.1431L8.07942 10.2296C9.65038 12.415 9.65329 14.7312 8.08742 16.7518L7.8595 17.0459L8.42578 17.5191L8.6537 17.225C10.4472 14.9103 10.4502 12.2656 8.66169 9.77803L8.57377 9.65577C9.65426 8.78131 10.9118 8.14082 12.2849 7.8012C13.4356 9.46307 14.2213 11.5106 14.4168 13.6761ZM20.0755 9.10859C19.3055 9.76217 18.3473 10.5757 18.5568 14.1538C18.6898 16.4358 18.5849 18.2458 18.5617 18.596L18.5605 18.5988L18.5568 18.6707C18.5554 18.6944 18.4139 21.0506 17.3288 23.3708C15.9289 26.365 13.6773 27.8953 10.6347 27.922L8.35916 23.7346C13.0485 22.2516 15.5803 18.4831 15.1402 13.6056C14.9586 11.5936 14.2148 9.4623 13.0413 7.64647L18.1068 7.04522L20.1152 9.08142C20.1016 9.08997 20.0881 9.09777 20.0755 9.10859ZM21.5593 13.1322C22.2546 13.1458 22.8279 12.5792 22.8575 11.8618L24.3689 13.3938L22.6826 17.7367C22.1112 17.4174 20.9995 16.9206 20.0021 17.2089C19.7565 17.2796 19.5346 17.3928 19.3358 17.5452C19.3586 16.715 19.3639 15.5075 19.282 14.108C19.0953 10.9156 19.8275 10.294 20.5352 9.69298C20.5698 9.66355 20.5965 9.62858 20.6178 9.59085L22.8258 11.8293L20.3056 11.78C20.2925 12.5131 20.8537 13.1184 21.5593 13.1322ZM14.3833 33.4275C6.85431 29.7976 2.37033 22.1391 2.37033 12.8715V5.25874L7.29949 4.03888C8.98695 4.47913 10.5606 5.60591 11.8012 7.15306C7.53346 8.36034 4.38162 12.2846 3.97931 17.0752L3.96938 17.1917L10.2086 28.6731L10.4174 28.6761C10.4632 28.6766 10.5073 28.6768 10.5526 28.6768C13.6865 28.6768 15.7014 27.1941 16.9946 25.3727L17.0311 25.3969L17.2271 25.0799C17.2346 25.0681 17.9745 23.8855 19.2677 22.9718C20.9639 21.7733 22.7775 21.5778 24.657 22.3891L24.7062 22.4103C22.7153 27.257 19.1551 31.1289 14.3833 33.4275ZM14.38 0.735107L0.917114 4.06664V12.8716C0.917114 22.8735 5.84071 31.1257 14.0874 34.9461L14.3834 35.0832L14.6793 34.9461C23.0023 31.0902 27.9714 22.8383 27.9714 12.8595L27.837 4.06463L14.38 0.735107Z" fill="white"/>
</svg>
