<svg width="178" height="228" viewBox="0 0 178 228" fill="none" xmlns="http://www.w3.org/2000/svg">
<path fill-rule="evenodd" clip-rule="evenodd" d="M163.011 135.611C161.356 130.759 159.005 126.173 156.032 121.996C150.686 114.438 139.525 102.952 119.113 98.0433C129.092 95.4538 136.854 89.363 137.782 73.2434L137.994 69.584L134.579 70.7093C134.449 70.7484 120.762 74.4176 89.5442 54.3161C81.8899 49.3506 69.8075 45.5169 57.9792 48.8799C58.1044 48.2031 58.1681 47.5163 58.1697 46.8279C58.1697 40.6019 53.2124 35.5354 47.1215 35.5354C41.0274 35.5354 36.0717 40.6003 36.0717 46.8279C36.0717 51.8 39.2343 56.0229 43.6103 57.5244C38.4575 62.7358 34.3698 69.8918 31.5442 78.8033C30.8443 81.0013 30.2835 83.2412 29.8652 85.5098L29.502 86.4218C18.0564 115.173 25.6227 131.115 31.1469 142.754C36.0098 152.998 39.021 159.4 29.1242 170.091C24.385 163.728 20.1638 155.869 16.664 145.723C9.8712 126.027 9.72626 56.7085 9.84678 35.6494C17.8317 36.6494 32.3308 36.0403 49.3185 24.155C61.9806 15.2955 75.5824 10.4147 88.6648 10.0304C101.749 10.4147 115.352 15.2972 128.013 24.155C145.002 36.0403 159.499 36.651 167.486 35.6494C167.59 53.9464 167.493 108.649 163.011 135.611V135.611ZM114.375 196.757C110.416 198.995 106.406 201.274 102.439 203.778C108.748 186.621 106.348 167.424 100.257 156.509C95.5455 148.062 86.7561 141.163 74.1428 135.989C72.5533 133.11 66.7442 121.576 70.1137 112.678C71.8823 108.01 76.0694 104.691 82.556 102.815C86.6926 101.618 91.1646 101.038 95.6741 100.654V100.695H98.1268C130.131 100.695 145.653 115.879 152.057 124.933C157.386 132.465 159.848 140.279 160.348 146.615C149.671 176.793 132.522 186.499 114.375 196.757V196.757ZM81.2206 97.9895C73.1689 100.318 67.894 104.652 65.5374 110.868C62.5246 118.824 65.14 127.911 67.5438 133.636C53.4453 128.18 42.9963 119.772 37.8028 109.601C35.3274 104.746 34.1109 99.5301 34.062 94.0223C35.0587 84.0099 39.1203 77.0819 46.1639 73.4567C55.7008 68.5433 67.6969 71.0725 73.1624 74.4404C103.737 93.265 130.638 80.3798 131.767 79.8212L131.864 79.7739C128.278 93.4539 116.302 94.2438 101.628 95.1965C94.8175 95.6362 87.7772 96.0922 81.2222 97.9895H81.2206ZM57.3196 54.3519C60.637 53.1305 64.0131 52.6126 67.3109 52.6126C74.8284 52.6126 81.9306 55.3144 86.9238 58.5569C107.239 71.6376 120.705 75.1683 128.338 75.8637C124.495 77.3979 112.455 81.3765 97.161 78.5346C97.832 73.2597 94.3175 68.343 89.1419 67.444C85.0738 66.7389 81.175 68.7241 79.1669 72.1294C77.9914 71.5019 76.8346 70.8398 75.6981 70.1442C68.1904 65.5223 54.5136 63.5452 43.9572 68.9798C42.4027 69.7832 40.9352 70.7448 39.578 71.8493C43.8937 62.9899 49.8347 57.1107 57.3196 54.3519V54.3519ZM47.1232 53.1061C43.7341 53.1061 40.9802 50.2887 40.9802 46.8279C40.9802 43.3672 43.7325 40.5498 47.1232 40.5498C50.5106 40.5498 53.2661 43.3672 53.2661 46.8279C53.2661 50.2903 50.509 53.1061 47.1232 53.1061ZM62.9692 196.756C51.9568 190.535 41.314 184.512 32.2575 174.005C45.0174 160.497 40.6251 151.232 35.5635 140.567C31.1371 131.237 25.8279 120.039 29.8798 101.639C30.5911 105.214 31.7941 108.674 33.4545 111.919C39.9118 124.569 53.4534 134.658 71.5924 140.341C83.5462 145.119 91.759 151.395 95.9966 158.993C102.25 170.197 104.076 192.176 94.4332 209.293C92.4467 210.789 90.5259 212.37 88.6761 214.032C80.5414 206.685 71.6266 201.648 62.9692 196.756ZM177.106 22.3619L170.621 24.7787C169.971 25.0181 154.493 30.5259 133.555 15.8786C119.297 5.90357 103.822 0.412029 88.8081 0.00325714L88.6566 0L88.5263 0.00325714C73.5125 0.412029 58.0378 5.90357 43.7781 15.8786C22.8444 30.5243 7.35995 25.0197 6.75086 24.7917L0.187718 22.2186L0.0867459 29.4006C0.033003 33.2587 -1.17214 124.177 7.4088 149.055C19.3023 183.543 39.0878 194.72 58.2202 205.532C67.9591 211.035 77.1605 216.232 85.2057 224.456L88.6745 228L92.1434 224.455C100.19 216.232 109.387 211.035 119.124 205.534C138.251 194.722 158.03 183.545 169.924 149.055C178.503 124.177 177.301 33.2587 177.246 29.399L177.104 22.3619H177.106Z" fill="white"/>
</svg>
