<svg width="348" height="235" viewBox="0 0 348 235" fill="none" xmlns="http://www.w3.org/2000/svg">
<g opacity="0.15">
<path d="M14.4163 4.20483C121.538 4.20483 227.642 4.20483 332.776 4.20483" stroke="white" stroke-width="1.20135"/>
<path d="M14.4161 0.60083H332.775" stroke="white" stroke-width="1.20135"/>
<path d="M14.4163 233.61C121.538 233.61 227.642 233.61 332.776 233.61" stroke="white" stroke-width="1.20135"/>
<path d="M14.4161 230.006H332.775" stroke="white" stroke-width="1.20135"/>
<path d="M0.600586 14.4165C0.600583 83.5226 0.60058 151.972 0.600577 219.795" stroke="white" stroke-width="1.20135"/>
<path d="M4.20471 14.4165L4.2047 219.795" stroke="white" stroke-width="1.20135"/>
<path d="M342.987 14.4165C342.987 83.5226 342.987 151.972 342.987 219.795" stroke="white" stroke-width="1.20135"/>
<path d="M346.591 14.4163L346.591 219.795" stroke="white" stroke-width="1.20135"/>
<path d="M332.775 233.61L337.393 233.61C336.751 232.582 336.375 231.371 336.375 230.07C336.375 226.369 339.367 223.37 343.058 223.37C344.357 223.37 345.565 223.747 346.591 224.39L346.591 219.795" stroke="white" stroke-width="1.20135"/>
<path d="M332.775 230.006C335.634 230.006 338.507 230.006 341.395 230.006C342.274 230.006 342.987 229.291 342.987 228.409L342.987 219.795" stroke="white" stroke-width="1.20135"/>
<path d="M0.60071 219.795L0.60071 224.412C1.62882 223.771 2.84008 223.395 4.14133 223.395C7.84167 223.395 10.8408 226.387 10.8408 230.078C10.8408 231.376 10.4639 232.585 9.82122 233.61L14.4161 233.61" stroke="white" stroke-width="1.20135"/>
<path d="M4.20471 219.795C4.20471 222.653 4.20471 225.526 4.20471 228.414C4.20471 229.294 4.9196 230.006 5.8017 230.006L14.4162 230.006" stroke="white" stroke-width="1.20135"/>
<path d="M346.591 14.4164L346.591 9.7991C345.563 10.4402 344.351 10.8162 343.05 10.8162C339.35 10.8162 336.351 7.82433 336.351 4.13344C336.351 2.8348 336.728 1.62646 337.37 0.60083L332.775 0.600829" stroke="white" stroke-width="1.20135"/>
<path d="M342.987 14.4163C342.987 11.5581 342.987 8.68504 342.987 5.79671C342.987 4.91743 342.272 4.20483 341.39 4.20483L332.775 4.20483" stroke="white" stroke-width="1.20135"/>
<path d="M14.4162 0.60083L9.79898 0.600831C10.4401 1.62894 10.8161 2.8402 10.8161 4.14145C10.8161 7.84179 7.82421 10.8409 4.13332 10.8409C2.83468 10.8409 1.62634 10.464 0.600708 9.82134L0.600708 14.4162" stroke="white" stroke-width="1.20135"/>
<path d="M14.4162 4.20483C11.558 4.20483 8.68491 4.20483 5.79659 4.20483C4.91731 4.20483 4.20471 4.91972 4.20471 5.80183L4.20471 14.4163" stroke="white" stroke-width="1.20135"/>
</g>
</svg>
