<?xml version="1.0" encoding="utf-8"?>
<!-- Generator: Adobe Illustrator 28.0.0, SVG Export Plug-In . SVG Version: 6.00 Build 0)  -->
<svg version="1.1" id="Layer_1" xmlns="http://www.w3.org/2000/svg" xmlns:xlink="http://www.w3.org/1999/xlink" x="0px" y="0px"
	 viewBox="0 0 43.6 57.7" style="enable-background:new 0 0 43.6 57.7;" xml:space="preserve">
<style type="text/css">
	.st0{fill-rule:evenodd;clip-rule:evenodd;fill:#FFFFFF;}
</style>
<path class="st0" d="M39.5,32.5c0.2-0.8,0.4-1.6,0.4-2.4l1-19.8c-3.2-0.2-11.8-1.3-19.1-7c-6.9,5.9-15.8,6.9-19.2,7l0.8,20
	c0.1,1.4,0.5,3,1.3,4.8c0.7-1.4,2-2.5,2.9-3.1L22.6,21c0.5-0.4,0.8-0.8,0.8-1.3c0-0.6-0.2-1.1-0.5-1.5l-4.5,3.6L15,20.4l0,0
	l-0.6,0.2c-1.7,0.7-2.7,1.2-2.6,3.6l0,0.6L10.7,25l0-0.6c-0.1-0.7,0-1.3,0.1-1.9l-2.2,0l0-1.3l2.7,0c0.5-0.7,1.3-1.1,2-1.5l-2-0.8
	l0-0.4c0-1.3,0.1-4.2,0.2-4.7l0.1-0.3l10.9-5.6l0.3,0.2c0.1,0.1,3.1,2,7,5.5l0,0c1.9,2,2.7,4.5,2.4,7c-0.3,2.2-1.5,4.2-3.2,5.3
	c-0.3,0.2-0.6,0.4-0.9,0.7c-0.2,0.2-0.5,0.4-0.7,0.5c-5.7,4-12.2,9.1-14,10.5c2.2,3,4.3,2,6.7,0.4l10.3-7.3c2.1-1.3,4.4-1.4,6.4-0.4
	C38,30.7,38.9,31.6,39.5,32.5z M21.8,54.5c1.5-1.2,5.1-4.3,8.6-8.1c4.3-4.5,7.1-8.7,8.5-12.2c-0.4-1.2-1.3-2.3-2.5-2.9
	c-0.9-0.5-2.8-1.1-5.1,0.3L21,38.9l0,0c-1.1,0.7-2.7,1.7-4.4,1.7c-1.4,0-3-0.7-4.4-2.9l-0.3-0.5l0.5-0.4l0,0
	c0.3-0.2,8-6.3,14.5-10.9c0.2-0.1,0.4-0.3,0.6-0.4l0,0l0,0c0.4-0.3,0.7-0.5,1-0.7c1.4-0.8,2.4-2.5,2.6-4.3c0.3-2.2-0.5-4.3-2.1-6
	c-3.1-2.7-5.7-4.6-6.6-5.1l-9.7,5c0,0.6-0.1,2.2-0.1,3.7l5.7,2.3l4.9-3.9l0.4,0.4c0.1,0.1,1.3,1.3,1.2,2.9c-0.1,0.9-0.5,1.6-1.3,2.2
	l-15,11.1c-0.1,0.1-2.3,1.5-2.9,3.5c1.6,2.9,4.1,6.2,7.5,9.8c0.2,0.2,0.3,0.4,0.5,0.5c1.7,0.9,3.5,0.9,5.7,0.1
	c2.6-0.9,10-6.7,10.1-6.8l0.5-0.4l0.8,1l-0.5,0.4c-0.3,0.2-7.7,6-10.4,7c-1.1,0.4-2.2,0.6-3.3,0.6c-0.3,0-0.6,0-1-0.1
	C18.2,51.5,20.6,53.5,21.8,54.5z M42.2,7.9L42.2,7.9l1.3,0l-1.2,22.4c-0.6,11.6-19.1,26.3-19.8,26.9l-0.8,0.6L21,57.1
	C20.2,56.5,1.4,41.7,0.9,30.5L0,7.8l1.3,0c0,0,0,0,0,0c0.6,0,12,0,19.5-7.1L21.7,0l0.8,0.7C31.1,7.8,41.9,7.9,42.2,7.9z M18.4,13.7
	L17.3,17l-4.2-1L18.4,13.7z"/>
</svg>
